<?xml version="1.0" encoding="UTF-8"?>
<svg version="1.1" xmlns="http://www.w3.org/2000/svg" width="512" height="512">
<path d="M0 0 C0.99868909 -0.00297112 1.99737819 -0.00594224 3.02633059 -0.0090034 C6.35908455 -0.01764635 9.69180239 -0.01919493 13.02456665 -0.02069092 C15.42015662 -0.02532233 17.81574585 -0.03034742 20.21133423 -0.03573608 C26.71186048 -0.04883371 33.21237985 -0.05533771 39.71291685 -0.05974674 C43.78023756 -0.06251761 47.84755591 -0.06675656 51.91487503 -0.07125092 C63.19913521 -0.08343966 74.48339352 -0.09373856 85.76766014 -0.09712601 C86.48888342 -0.09734557 87.2101067 -0.09756514 87.95318524 -0.09779136 C88.67603937 -0.09800964 89.39889351 -0.09822791 90.14365232 -0.09845281 C91.60818887 -0.09889626 93.07272542 -0.09934282 94.53726196 -0.09979248 C95.2637076 -0.10001391 95.99015323 -0.10023534 96.73861237 -0.10046348 C108.48858398 -0.10440477 120.23849332 -0.12184006 131.98844092 -0.145152 C144.08217627 -0.16895013 156.17588049 -0.18133175 168.26963961 -0.18249393 C175.04751456 -0.18340615 181.82530843 -0.18904286 188.60316086 -0.20731354 C194.98736375 -0.22388814 201.37141365 -0.2259044 207.75563049 -0.21717453 C210.08628883 -0.21640908 212.41695571 -0.22068117 214.74759293 -0.23063278 C258.07962913 -0.40465983 296.27158717 14.14096113 327.37026978 44.66778564 C335.82133285 53.25263113 342.72223089 62.77794547 348.81997681 73.14044189 C349.16657349 73.72519287 349.51317017 74.30994385 349.87026978 74.91241455 C362.01010239 95.68527045 368.98307225 119.22610484 368.9604187 143.32046509 C368.96487538 144.81849873 368.96487538 144.81849873 368.9694221 146.34679568 C368.97806505 149.67954963 368.97961363 153.01226748 368.98110962 156.34503174 C368.98574103 158.7406217 368.99076612 161.13621093 368.99615479 163.53179932 C369.00925242 170.03232557 369.01575642 176.53284494 369.02016544 183.03338194 C369.02293631 187.10070264 369.02717527 191.168021 369.03166962 195.23534012 C369.04385836 206.5196003 369.05415726 217.80385861 369.05754471 229.08812523 C369.05776427 229.80934851 369.05798384 230.53057179 369.05821006 231.27365033 C369.05842834 231.99650446 369.05864662 232.7193586 369.05887151 233.46411741 C369.05931496 234.92865396 369.05976152 236.3931905 369.06021118 237.85772705 C369.06043261 238.58417268 369.06065404 239.31061832 369.06088218 240.05907746 C369.06482347 251.80904907 369.08225876 263.55895841 369.1055707 275.308906 C369.12936883 287.40264135 369.14175045 299.49634558 369.14291263 311.5901047 C369.14382485 318.36797965 369.14946156 325.14577352 369.16773224 331.92362595 C369.18430684 338.30782883 369.1863231 344.69187874 369.17759323 351.07609558 C369.17682778 353.40675392 369.18109987 355.7374208 369.19105148 358.06805801 C369.36507853 401.40009422 354.81945758 439.59205226 324.29263306 470.69073486 C315.70778757 479.14179794 306.18247323 486.04269597 295.81997681 492.14044189 C295.23522583 492.48703857 294.65047485 492.83363525 294.04800415 493.19073486 C273.27514825 505.33056748 249.73431386 512.30353734 225.63995361 512.28088379 C224.64126452 512.28385491 223.64257542 512.28682603 222.61362302 512.28988719 C219.28086907 512.29853014 215.94815122 512.30007872 212.61538696 512.30157471 C210.219797 512.30620611 207.82420777 512.31123121 205.42861938 512.31661987 C198.92809313 512.3297175 192.42757376 512.3362215 185.92703676 512.34063053 C181.85971606 512.3434014 177.7923977 512.34764035 173.72507858 512.3521347 C162.4408184 512.36432345 151.15656009 512.37462235 139.87229347 512.3780098 C138.79045855 512.37833915 138.79045855 512.37833915 137.68676838 512.37867515 C136.96391424 512.37889343 136.2410601 512.3791117 135.49630129 512.3793366 C134.03176474 512.37978005 132.5672282 512.38022661 131.10269165 512.38067627 C130.37624602 512.3808977 129.64980038 512.38111913 128.90134124 512.38134727 C117.15136963 512.38528855 105.40146029 512.40272385 93.6515127 512.42603579 C81.55777735 512.44983392 69.46407312 512.46221554 57.370314 512.46337771 C50.59243905 512.46428994 43.81464518 512.46992664 37.03679276 512.48819733 C30.65258987 512.50477193 24.26853996 512.50678819 17.88432312 512.49805832 C15.55366478 512.49729287 13.2229979 512.50156496 10.89236069 512.51151657 C-32.43967552 512.68554362 -70.63163355 498.13992266 -101.73031616 467.61309814 C-110.18137924 459.02825266 -117.08227727 449.50293832 -123.18002319 439.14044189 C-123.52661987 438.55569092 -123.87321655 437.97093994 -124.23031616 437.36846924 C-139.15366328 411.83265263 -143.96888288 384.22270078 -143.82699585 354.93341064 C-143.83379502 352.5269607 -143.84271086 350.12051597 -143.85354614 347.71408081 C-143.87607264 341.2594098 -143.86761464 334.80514453 -143.85165071 328.35046768 C-143.84267249 324.30057544 -143.84447118 320.25073325 -143.84910202 316.20083618 C-143.84986819 315.52315191 -143.85063435 314.84546765 -143.85142373 314.14724749 C-143.85302277 312.7694531 -143.85464384 311.39165874 -143.85628669 310.0138644 C-143.87045789 297.17115175 -143.8542884 284.32861914 -143.82728486 271.48593605 C-143.80495393 260.5272569 -143.80883651 249.56884283 -143.83187866 238.61016846 C-143.85879081 225.80542442 -143.86908541 213.00083715 -143.85381734 200.19606876 C-143.85222502 198.82406174 -143.85065316 197.45205468 -143.84910202 196.08004761 C-143.84833064 195.40544076 -143.84755927 194.73083391 -143.84676451 194.03578442 C-143.84249339 189.33985864 -143.8498857 184.64406472 -143.86149979 179.94815063 C-143.87611257 173.59803788 -143.86562045 167.2484178 -143.8370285 160.89835739 C-143.83050645 158.58998806 -143.83215941 156.2815761 -143.84334183 153.97322464 C-144.02984188 111.50758545 -129.37532516 73.193066 -99.75082397 42.66778564 C-73.70742027 16.77431011 -36.88675524 -0.03468097 0 0 Z " fill="#7210C8" transform="translate(143.18002319335938,-0.14044189453125)"/>
<path d="M0 0 C21.80257255 -0.13592844 43.60479709 -0.24624897 65.40768719 -0.31087303 C75.53325865 -0.34168904 85.65854635 -0.38363238 95.78393555 -0.45263672 C104.61880557 -0.51281701 113.4534699 -0.55123796 122.28853923 -0.56453097 C126.95807288 -0.57229001 131.62701852 -0.59026288 136.29636192 -0.63438034 C167.5439271 -0.91787684 194.96265319 1.75648504 219 24 C219.72574219 24.65742188 220.45148438 25.31484375 221.19921875 25.9921875 C234.77682248 38.87151446 246.04604338 59.8246538 247.16113281 78.73217773 C247.43352508 97.87723661 246.75244201 114.9046509 237.28125 132.125 C235.84985807 134.79483164 235.84985807 134.79483164 236.03125 137.09765625 C237.39794961 139.7814575 239.2807445 141.40660724 241.5 143.4375 C258.00788211 159.56913409 267.71194595 181.52651693 268.41796875 204.56933594 C268.58999248 227.07864036 261.92203198 247.27873219 248 265 C247.46117187 265.72058594 246.92234375 266.44117188 246.3671875 267.18359375 C232.81032557 284.11263993 210.24968592 295.07460788 189 298 C186.35826433 298.08809281 183.74417952 298.13096956 181.103302 298.12025452 C180.32638406 298.12110894 179.54946611 298.12196337 178.7490052 298.12284368 C176.15572581 298.12448574 173.56251167 298.11899802 170.96923828 298.11352539 C169.106308 298.11324322 167.24337761 298.11340184 165.38044739 298.1139679 C160.32930113 298.1142547 155.27817864 298.10837687 150.22703791 298.10139394 C144.94594601 298.09514092 139.66485357 298.09455506 134.38375854 298.09336853 C124.38602554 298.09026097 114.38830348 298.08205531 104.39057529 298.07201904 C90.87868118 298.0587496 77.36678408 298.05335335 63.8548851 298.04751682 C42.56991521 298.03811506 21.2849684 298.01819228 0 298 C0 238.27 0 178.54 0 117 C81.375 116.8125 81.375 116.8125 107.04443359 116.79223633 C114.65512073 116.76235065 114.65512073 116.76235065 122.26577759 116.72587585 C125.64876137 116.70983886 129.03144477 116.70767872 132.41445923 116.71403503 C136.73768674 116.72169802 141.06021256 116.70532473 145.38331151 116.67198312 C146.96489806 116.66379784 148.54655547 116.66386146 150.12813449 116.67339098 C159.89891882 116.72670462 168.37790948 116.16111609 175.89525414 109.26014423 C182.4577858 102.30231341 183.56418872 95.74539382 183.35546875 86.3828125 C182.87686562 81.82819368 181.59488243 78.71993635 179 75 C178.195625 73.6696875 178.195625 73.6696875 177.375 72.3125 C169.16265246 64.31626687 159.53752519 64.27546256 148.71826172 64.34057617 C147.09117917 64.33211059 145.46410676 64.32146083 143.83705139 64.30880737 C139.44714487 64.28079207 135.05772915 64.28310926 130.66776037 64.29110122 C126.06994854 64.29423721 121.47229005 64.26916004 116.87454224 64.24714661 C108.18022731 64.20976967 99.48606877 64.19756238 90.79168141 64.1945222 C80.88829807 64.18982447 70.98507071 64.15687825 61.08175635 64.12162435 C40.72115023 64.04977398 20.36073098 64.01691476 0 64 C0 42.88 0 21.76 0 0 Z " fill="#FEFEFE" transform="translate(122,107)"/>
<path d="M0 0 C30.12721393 -0.20081834 30.12721393 -0.20081834 45.03407001 -0.25126934 C53.08853751 -0.27895088 61.14274544 -0.31406575 69.19702148 -0.37719727 C75.57507725 -0.42716613 81.95293693 -0.45932254 88.33118302 -0.47044247 C91.70587805 -0.4769387 95.08001231 -0.49211378 98.4545269 -0.52865028 C102.22970466 -0.56503868 106.00372733 -0.5699409 109.77905273 -0.56762695 C111.44170166 -0.59459152 111.44170166 -0.59459152 113.13793945 -0.62210083 C121.77511449 -0.56495755 127.31707375 1.80813058 133.8125 7.4375 C140.14544707 14.85609514 141.55698039 20.5319606 141.3359375 30.12890625 C140.67347518 37.76262908 137.56078612 42.86048555 132 48 C127.58280603 51.70474333 123.49806693 53.25229431 117.72917175 53.24050903 C116.68735748 53.24325836 115.64554321 53.24600769 114.57215881 53.24884033 C113.43999435 53.24164978 112.3078299 53.23445923 111.14135742 53.22705078 C109.94093811 53.22734283 108.7405188 53.22763489 107.50372314 53.22793579 C104.22099754 53.22678293 100.93844344 53.2167669 97.65575194 53.20278788 C94.22178759 53.19026757 90.78781971 53.18910899 87.35383606 53.18673706 C80.8551402 53.18052611 74.35651179 53.16412052 67.8578456 53.14403808 C60.45763812 53.12166709 53.05742738 53.11068264 45.6571945 53.10064721 C30.43808397 53.07975392 15.21906634 53.04308252 0 53 C0 35.51 0 18.02 0 0 Z " fill="#6813C3" transform="translate(185,288)"/>
</svg>
